<svg width="36" height="36" viewBox="0 0 36 36" fill="none" xmlns="http://www.w3.org/2000/svg">
<rect x="0.5" y="0.416016" width="35" height="35" rx="17.5" fill="#5C6574"/>
<path d="M17.54 7.91601C12.08 7.91601 7.63005 12.366 7.63005 17.826C7.63005 19.576 8.09005 21.276 8.95005 22.776L7.55005 27.916L12.8 26.536C14.25 27.326 15.88 27.746 17.54 27.746C23 27.746 27.4501 23.296 27.4501 17.836C27.4501 15.186 26.42 12.696 24.55 10.826C23.6331 9.90011 22.5411 9.16597 21.3376 8.66637C20.134 8.16677 18.8431 7.91169 17.54 7.91601ZM17.55 9.58601C19.75 9.58601 21.81 10.446 23.37 12.006C24.1354 12.7715 24.7423 13.6805 25.1558 14.6809C25.5694 15.6813 25.7815 16.7535 25.7801 17.836C25.7801 22.376 22.08 26.066 17.54 26.066C16.06 26.066 14.61 25.676 13.35 24.916L13.05 24.746L9.93005 25.566L10.76 22.526L10.56 22.206C9.7346 20.8944 9.29772 19.3757 9.30005 17.826C9.31005 13.286 13 9.58601 17.55 9.58601ZM14.03 13.246C13.87 13.246 13.6 13.306 13.37 13.556C13.15 13.806 12.5 14.416 12.5 15.626C12.5 16.846 13.39 18.016 13.5 18.186C13.64 18.356 15.26 20.856 17.75 21.916C18.34 22.186 18.8 22.336 19.16 22.446C19.75 22.636 20.29 22.606 20.72 22.546C21.2 22.476 22.18 21.946 22.39 21.366C22.6 20.786 22.6 20.296 22.54 20.186C22.47 20.086 22.31 20.026 22.06 19.916C21.81 19.776 20.59 19.176 20.37 19.096C20.14 19.016 20 18.976 19.81 19.216C19.65 19.466 19.17 20.026 19.03 20.186C18.88 20.356 18.74 20.376 18.5 20.256C18.24 20.126 17.44 19.866 16.5 19.026C15.76 18.366 15.27 17.556 15.12 17.306C15 17.066 15.11 16.916 15.23 16.806C15.34 16.696 15.5 16.516 15.6 16.366C15.73 16.226 15.77 16.116 15.85 15.956C15.93 15.786 15.89 15.646 15.83 15.526C15.77 15.416 15.27 14.176 15.06 13.686C14.86 13.206 14.66 13.266 14.5 13.256C14.36 13.256 14.2 13.246 14.03 13.246Z" fill="white"/>
</svg>
