<svg width="85" height="84" viewBox="0 0 85 84" fill="none" xmlns="http://www.w3.org/2000/svg">
<path d="M74 31.5C70.15 31.5 67 34.65 67 38.5V52.5H18V38.5C18 34.65 14.85 31.5 11 31.5C7.15 31.5 4 34.65 4 38.5V56C4 61.775 8.725 66.5 14.5 66.5V70C14.5 71.925 16.075 73.5 18 73.5C19.925 73.5 21.5 71.925 21.5 70V66.5H63.5V70C63.5 71.925 65.075 73.5 67 73.5C68.925 73.5 70.5 71.925 70.5 70V66.5C76.275 66.5 81 61.775 81 56V38.5C81 34.65 77.85 31.5 74 31.5Z" fill="#EA6D27"/>
<path d="M24.5 38.5V45.5H59.5V38.5C59.5 31.99 63.98 26.565 70 24.99V21C70 15.225 65.275 10.5 59.5 10.5H24.5C18.725 10.5 14 15.225 14 21V24.99C20.02 26.565 24.5 31.99 24.5 38.5Z" fill="#EA6D27"/>
</svg>
