<svg width="85" height="84" viewBox="0 0 85 84" fill="none" xmlns="http://www.w3.org/2000/svg">
<path d="M67.3439 66.507V73.5C67.3438 74.3573 67.0291 75.1847 66.4594 75.8253C65.8898 76.4659 65.1048 76.8752 64.2534 76.9755L63.8439 77H21.8439C20.9157 77 20.0255 76.6313 19.3691 75.9749C18.7127 75.3185 18.3439 74.4283 18.3439 73.5V66.521C18.3439 65.5927 18.7127 64.7025 19.3691 64.0461C20.0255 63.3897 20.9157 63.021 21.8439 63.021L63.8439 63.007C64.7722 63.007 65.6624 63.3757 66.3188 64.0321C66.9752 64.6885 67.3439 65.5787 67.3439 66.507ZM42.8439 7C46.1764 6.99937 49.4398 7.95027 52.2504 9.74089C55.061 11.5315 57.3018 14.0874 58.7094 17.108L58.9194 17.5875L59.3954 17.556C63.2396 17.3821 67.0338 18.4801 70.191 20.68C73.3482 22.8799 75.6923 26.0591 76.8605 29.7255L77.0809 30.471C78.156 34.4393 77.7995 38.6594 76.0741 42.3911C74.3487 46.1229 71.3645 49.128 67.645 50.8795L67.3405 51.009V56.007C67.3405 56.9353 66.9717 57.8255 66.3153 58.4819C65.6589 59.1382 64.7687 59.507 63.8405 59.507L21.8404 59.521C20.9832 59.5209 20.1558 59.2062 19.5151 58.6365C18.8745 58.0668 18.4652 57.2819 18.3649 56.4305L18.3404 56.021V51.0055L17.9099 50.813C15.7562 49.7765 13.8377 48.3098 12.2726 46.5033C10.7075 44.6968 9.52908 42.5889 8.80995 40.3095L8.58595 39.529C7.87066 36.8348 7.80933 34.0087 8.40706 31.286C9.00479 28.5633 10.2443 26.0227 12.0224 23.8759C13.8004 21.7291 16.0656 20.038 18.6294 18.9436C21.1931 17.8492 23.9811 17.3831 26.7614 17.584L26.9924 17.087C28.3448 14.1947 30.4627 11.7275 33.1168 9.95258C35.7708 8.17766 38.8599 7.16266 42.0494 7.0175L42.8439 7Z" fill="#EA6D27"/>
</svg>
