<svg width="108" height="17" viewBox="0 0 108 17" fill="none" xmlns="http://www.w3.org/2000/svg">
<path d="M8.56088 14.0234L4.41088 16.5234C4.22754 16.64 4.03588 16.69 3.83588 16.6734C3.63588 16.6567 3.46088 16.59 3.31088 16.4734C3.16088 16.3567 3.04421 16.211 2.96088 16.0364C2.87754 15.8617 2.86088 15.6657 2.91088 15.4484L4.01088 10.7234L0.335876 7.54836C0.169209 7.39836 0.0652091 7.22736 0.0238758 7.03536C-0.0174575 6.84336 -0.00512426 6.65603 0.0608757 6.47336C0.126876 6.2907 0.226876 6.1407 0.360876 6.02336C0.494876 5.90603 0.678209 5.83103 0.910876 5.79836L5.76088 5.37336L7.63588 0.923364C7.71921 0.723364 7.84854 0.573364 8.02388 0.473364C8.19921 0.373364 8.37821 0.323364 8.56088 0.323364C8.74354 0.323364 8.92254 0.373364 9.09788 0.473364C9.27321 0.573364 9.40254 0.723364 9.48588 0.923364L11.3609 5.37336L16.2109 5.79836C16.4442 5.8317 16.6275 5.9067 16.7609 6.02336C16.8942 6.14003 16.9942 6.29003 17.0609 6.47336C17.1275 6.6567 17.1402 6.84436 17.0989 7.03636C17.0575 7.22836 16.9532 7.39903 16.7859 7.54836L13.1109 10.7234L14.2109 15.4484C14.2609 15.665 14.2442 15.861 14.1609 16.0364C14.0775 16.2117 13.9609 16.3574 13.8109 16.4734C13.6609 16.5894 13.4859 16.656 13.2859 16.6734C13.0859 16.6907 12.8942 16.6407 12.7109 16.5234L8.56088 14.0234Z" fill="#EA6D27"/>
<path d="M30.6834 14.0234L26.5334 16.5234C26.3501 16.64 26.1584 16.69 25.9584 16.6734C25.7584 16.6567 25.5834 16.59 25.4334 16.4734C25.2834 16.3567 25.1668 16.211 25.0834 16.0364C25.0001 15.8617 24.9834 15.6657 25.0334 15.4484L26.1334 10.7234L22.4584 7.54836C22.2918 7.39836 22.1878 7.22736 22.1464 7.03536C22.1051 6.84336 22.1174 6.65603 22.1834 6.47336C22.2494 6.2907 22.3494 6.1407 22.4834 6.02336C22.6174 5.90603 22.8008 5.83103 23.0334 5.79836L27.8834 5.37336L29.7584 0.923364C29.8418 0.723364 29.9711 0.573364 30.1464 0.473364C30.3218 0.373364 30.5008 0.323364 30.6834 0.323364C30.8661 0.323364 31.0451 0.373364 31.2204 0.473364C31.3958 0.573364 31.5251 0.723364 31.6084 0.923364L33.4834 5.37336L38.3334 5.79836C38.5668 5.8317 38.7501 5.9067 38.8834 6.02336C39.0168 6.14003 39.1168 6.29003 39.1834 6.47336C39.2501 6.6567 39.2628 6.84436 39.2214 7.03636C39.1801 7.22836 39.0758 7.39903 38.9084 7.54836L35.2334 10.7234L36.3334 15.4484C36.3834 15.665 36.3668 15.861 36.2834 16.0364C36.2001 16.2117 36.0834 16.3574 35.9334 16.4734C35.7834 16.5894 35.6084 16.656 35.4084 16.6734C35.2084 16.6907 35.0168 16.6407 34.8334 16.5234L30.6834 14.0234Z" fill="#EA6D27"/>
<path d="M52.806 14.0234L48.656 16.5234C48.4727 16.64 48.281 16.69 48.081 16.6734C47.881 16.6567 47.706 16.59 47.556 16.4734C47.406 16.3567 47.2893 16.211 47.206 16.0364C47.1227 15.8617 47.106 15.6657 47.156 15.4484L48.256 10.7234L44.581 7.54836C44.4143 7.39836 44.3103 7.22736 44.269 7.03536C44.2277 6.84336 44.24 6.65603 44.306 6.47336C44.372 6.2907 44.472 6.1407 44.606 6.02336C44.74 5.90603 44.9233 5.83103 45.156 5.79836L50.006 5.37336L51.881 0.923364C51.9643 0.723364 52.0937 0.573364 52.269 0.473364C52.4443 0.373364 52.6233 0.323364 52.806 0.323364C52.9887 0.323364 53.1677 0.373364 53.343 0.473364C53.5183 0.573364 53.6477 0.723364 53.731 0.923364L55.606 5.37336L60.456 5.79836C60.6893 5.8317 60.8727 5.9067 61.006 6.02336C61.1393 6.14003 61.2393 6.29003 61.306 6.47336C61.3727 6.6567 61.3853 6.84436 61.344 7.03636C61.3027 7.22836 61.1983 7.39903 61.031 7.54836L57.356 10.7234L58.456 15.4484C58.506 15.665 58.4893 15.861 58.406 16.0364C58.3227 16.2117 58.206 16.3574 58.056 16.4734C57.906 16.5894 57.731 16.656 57.531 16.6734C57.331 16.6907 57.1393 16.6407 56.956 16.5234L52.806 14.0234Z" fill="#EA6D27"/>
<path d="M74.9288 14.0234L70.7788 16.5234C70.5955 16.64 70.4038 16.69 70.2038 16.6734C70.0038 16.6567 69.8288 16.59 69.6788 16.4734C69.5288 16.3567 69.4121 16.211 69.3288 16.0364C69.2455 15.8617 69.2288 15.6657 69.2788 15.4484L70.3788 10.7234L66.7038 7.54836C66.5371 7.39836 66.4331 7.22736 66.3918 7.03536C66.3505 6.84336 66.3628 6.65603 66.4288 6.47336C66.4948 6.2907 66.5948 6.1407 66.7288 6.02336C66.8628 5.90603 67.0461 5.83103 67.2788 5.79836L72.1288 5.37336L74.0038 0.923364C74.0871 0.723364 74.2165 0.573364 74.3918 0.473364C74.5671 0.373364 74.7461 0.323364 74.9288 0.323364C75.1115 0.323364 75.2905 0.373364 75.4658 0.473364C75.6411 0.573364 75.7705 0.723364 75.8538 0.923364L77.7288 5.37336L82.5788 5.79836C82.8121 5.8317 82.9955 5.9067 83.1288 6.02336C83.2621 6.14003 83.3621 6.29003 83.4288 6.47336C83.4955 6.6567 83.5081 6.84436 83.4668 7.03636C83.4255 7.22836 83.3211 7.39903 83.1538 7.54836L79.4788 10.7234L80.5788 15.4484C80.6288 15.665 80.6121 15.861 80.5288 16.0364C80.4455 16.2117 80.3288 16.3574 80.1788 16.4734C80.0288 16.5894 79.8538 16.656 79.6538 16.6734C79.4538 16.6907 79.2621 16.6407 79.0788 16.5234L74.9288 14.0234Z" fill="#EA6D27"/>
<path d="M97.051 0.823364C97.1379 0.823364 97.2331 0.845758 97.3411 0.907349C97.4129 0.948375 97.4708 1.0097 97.5149 1.11536L97.5159 1.11731L99.3909 5.5675L99.5081 5.84485L99.8079 5.87122L104.636 6.29407C104.801 6.31835 104.883 6.36489 104.922 6.39954C104.986 6.45521 105.04 6.53236 105.081 6.64465C105.115 6.7387 105.122 6.83037 105.101 6.93079C105.085 7.00488 105.043 7.08579 104.944 7.17493L101.275 10.3448L101.046 10.5421L101.115 10.837L102.214 15.5616C102.242 15.6846 102.227 15.7626 102.199 15.8214C102.149 15.9276 102.082 16.0114 101.995 16.0782C101.926 16.1318 101.844 16.1653 101.734 16.1749C101.653 16.1819 101.57 16.1657 101.471 16.1027L101.201 16.5236L101.471 16.1017L101.459 16.0948L97.3098 13.5948L97.051 13.4396L96.7932 13.5948L92.6438 16.0948H92.6428L92.6331 16.1017C92.5338 16.1648 92.4493 16.1818 92.3674 16.1749C92.2586 16.1658 92.1776 16.1319 92.1086 16.0782C92.0213 16.0103 91.9531 15.9271 91.9026 15.8214C91.8751 15.7639 91.8592 15.6845 91.8879 15.5597L92.9885 10.837L93.0569 10.5421L92.8284 10.3448L89.1536 7.17004C89.0588 7.08267 89.0189 7.00295 89.0032 6.92981C88.9814 6.8286 88.9881 6.73694 89.0217 6.64368C89.0616 6.53319 89.1162 6.45618 89.1809 6.39954C89.2213 6.36422 89.3025 6.31769 89.4651 6.29407L94.2952 5.87122L94.595 5.84485L94.7122 5.5675L96.5872 1.11731L96.5881 1.11536C96.6322 1.00968 96.6901 0.94836 96.762 0.907349C96.8698 0.845864 96.9642 0.823422 97.051 0.823364Z" stroke="black"/>
</svg>
